<?xml version="1.0" encoding="UTF-8"?>
<svg id="Layer_1" data-name="Layer 1" xmlns="http://www.w3.org/2000/svg" viewBox="0 0 892.45 515.54">
  <path d="M157.95,253.62c7.83-.21,14.28-4.98,19.22-10.72,5.58-6.49,9.77-14.13,14.03-21.52,9.37-16.24,17.88-32.97,25.51-50.09s14.42-34.68,20.29-52.52c5.88-17.89,10.86-36.08,14.89-54.47,4.04-18.41,7.12-37.02,9.26-55.74.27-2.36.52-4.73.76-7.09l-2.95.4c6.03,23.99,5.68,48.98,5.2,73.54-.46,24.08-1.35,48.56,3.59,72.29,2.68,12.9,7.27,25.41,14.24,36.63.96,1.54,2.96.45,2.74-1.16-1.88-13.86-10.72-25.64-22.17-33.29-12.79-8.54-28.08-11.4-43.25-9.84-17.62,1.81-34.24,8.74-49.92,16.65-13.57,6.85-26.67,14.64-39.19,23.27s-24.46,18.07-35.76,28.24-22.11,21.27-32.09,32.91-19.27,24.02-27.7,36.89-16.16,26.51-22.85,40.51c-7.49,15.66-14.07,33.22-11.1,50.86,2.24,13.34,11.52,26.88,24.84,31.05,3.1.97,6.39,1.34,9.63,1.1,1.91-.15,1.93-3.15,0-3-13.74,1.04-24.89-10.18-29.47-22.23-5.99-15.78-1.25-33.38,5.08-48.28s13.57-27.87,21.69-40.97,16.54-24.92,25.96-36.53,19.48-22.53,30.23-32.83,22.06-19.85,33.99-28.65c11.88-8.77,24.32-16.77,37.24-23.91,14.42-7.98,29.5-15.38,45.53-19.51,15.18-3.9,31.64-4.57,46.26,1.77,12.02,5.22,22.84,14.62,27.69,27.03,1.2,3.08,2.02,6.29,2.47,9.57l2.74-1.16c-12.6-20.27-16.56-44.04-17.49-67.53-.97-24.5.96-49.01.04-73.51-.52-13.68-1.93-27.39-5.27-40.7-.44-1.74-2.78-1.2-2.95.4-1.88,18.48-4.69,36.87-8.44,55.07s-8.35,35.99-13.86,53.61-11.88,34.95-19.13,51.91-15.37,33.58-24.31,49.73c-4.26,7.7-8.56,15.47-13.47,22.78-4.09,6.09-9.32,12.66-16.52,15.11-1.71.58-3.45.9-5.25.94-1.93.05-1.93,3.05,0,3h0Z"/>
  <path d="M308.34,42.38c-3.52,19.13-5.43,38.55-5.67,58s1.12,38.62,4.2,57.66c1.22,7.54,3.09,15.67,8.64,21.29,5.17,5.22,12.44,6.75,19.53,5.63,15.15-2.39,27.09-14.66,34.7-27.24,8.11-13.42,12.23-29.35,11.43-45.03-.1-1.95-.28-3.89-.53-5.83-.17-1.3-2.06-2.26-2.8-.76-9.66,19.67-2.28,46.88,17.68,57.1,9.84,5.04,21.7,5.64,32.13,2.11,5.25-1.78,10.13-4.57,14.25-8.29,4.46-4.04,7.86-9.17,10.43-14.57,6.16-12.93,8.07-27.33,12.98-40.71l-2.2.9c19.37,13.42,45.39,15.39,66.95,6.25,6.13-2.6,11.8-6.09,16.9-10.37,1.36-1.14-.37-3.1-1.82-2.36-17.92,9.27-35.32,19.54-52.1,30.75s-33,23.4-48.48,36.42c-8.76,7.37-17.29,15.01-25.58,22.91-.5.48-.53,1.23-.23,1.82,3.17,6.23,11.49,8.8,17.56,5.28,1.67-.97.16-3.56-1.51-2.59-4.73,2.73-11.02.57-13.46-4.21l-.23,1.82c14.64-13.95,30.04-27.12,46.14-39.37,15.97-12.15,32.6-23.42,49.81-33.74,9.69-5.81,19.57-11.31,29.6-16.5l-1.82-2.36c-17.23,14.47-41.8,18.73-63.14,12.02-6.08-1.91-11.83-4.74-17.06-8.37-.86-.59-1.9.06-2.2.9-7.62,20.76-8.67,48.68-31.16,59.67-9.29,4.54-20.43,5.21-30.18,1.74s-17.31-11.45-21.21-21c-4.37-10.69-4.57-23.28.57-33.75l-2.8-.76c1.93,14.97-.76,30.42-7.5,43.91-6.37,12.74-16.71,25.35-30.63,30-6.31,2.1-13.5,2.46-19.24-1.37-6.24-4.17-8.57-11.87-9.92-18.86-1.71-8.85-2.68-17.89-3.45-26.86s-1.21-18.64-1.25-27.98c-.06-18.62,1.38-37.25,4.38-55.63.38-2.3.78-4.6,1.2-6.89.35-1.89-2.54-2.7-2.89-.8h0Z"/>
  <path d="M580.27,106.59c-16.95-.04-33.09,10.02-41.4,24.66-2.03,3.58-3.84,7.54-4.36,11.65s.47,8.42,4.35,10.29c4.13,1.99,8.89,0,12.57-2.09,4.03-2.29,7.84-4.93,11.45-7.84,8.28-6.68,15.28-14.91,20.65-24.08h-2.59c4.12,8.33,13.17,13.07,22.26,13.37,9.86.33,18.96-4.91,25.52-11.96,3.54-3.8,6.33-8.12,8.77-12.69s4.95-9.38,9.97-11.28,10.66-.8,15.77.16c5.45,1.03,10.86,1.85,16.42,1.8,12.69-.1,25.28-3.75,36.07-10.43l-1.82-2.36c-12.62,10.62-23,23.87-30.4,38.61-2.09,4.17-3.94,8.46-5.56,12.83-.51,1.39,1.55,2.58,2.51,1.46,10.29-12.11,18.82-25.67,25.32-40.17,6.52-14.53,11.07-29.93,13.43-45.68,1.33-8.94,1.99-17.96,1.91-26.99-.01-1.24-1.67-2.06-2.56-1.06-12.11,13.59-21.18,29.77-26.6,47.14-2.6,8.35-4.56,17.1-5.17,25.84-.5,7.2.06,14.73,2.46,21.58,2.21,6.31,6.21,12.21,12.4,15.13,8.57,4.04,18.2,1.55,26.28-2.47,14.75-7.35,26.74-20.06,33.78-34.9,1.77-3.74,3.26-7.62,4.39-11.6.58-2.02,1.06-4.14,2.13-5.97,1.13-1.93,2.91-2.84,5.03-3.36,5.13-1.26,10.43-2.02,15.63-3.01s10.72-2.04,16.08-3.06c2.6-.49,5.2-.99,7.79-1.48l-.8-2.89c-11.99,4.44-23.53,10.06-34.39,16.81-5.4,3.35-10.62,6.97-15.66,10.85-2.51,1.93-4.98,3.92-7.39,5.96s-4.8,3.93-6.79,6.24c-1.8,2.09-3.13,4.62-2.96,7.45.13,2.13,1.08,4.07,2.57,5.58,3.17,3.21,8.02,4.49,12.37,4.94,2.93.31,5.93.14,8.87.07,3.47-.09,6.94-.24,10.4-.48,6.91-.46,13.79-1.22,20.64-2.25,15.64-2.36,31.03-6.22,45.94-11.5,1.81-.64,1.03-3.54-.8-2.89-25.06,8.87-51.49,13.72-78.08,14.17-4.77.08-9.63.12-14.03-2-1.66-.8-3.3-1.89-4.23-3.53-1.05-1.84-.78-4.05.27-5.83,1.44-2.45,3.86-4.3,5.97-6.14,2.29-2,4.63-3.94,7.01-5.83,4.77-3.77,9.73-7.31,14.85-10.6,11.38-7.32,23.54-13.42,36.24-18.12,1.81-.67,1.11-3.26-.8-2.89-10.31,1.96-20.62,3.92-30.94,5.89-2.52.48-5.06.93-7.57,1.45-2.1.43-4.16,1.1-5.82,2.52-3.11,2.65-3.77,7.09-4.93,10.78-4.77,15.28-14.74,29-27.93,38.11-6.99,4.82-15.46,9.31-24.17,9.11-7.2-.17-13.07-4.33-16.47-10.52s-4.43-13.26-4.5-20.11c-.08-8.01,1.41-16.04,3.39-23.77,4.38-17.12,12.33-33.4,23.38-47.21,1.38-1.73,2.81-3.41,4.28-5.06l-2.56-1.06c.14,15.7-1.93,31.37-6.1,46.51s-10.32,29.56-18.4,42.95c-4.52,7.49-9.62,14.61-15.28,21.27l2.51,1.46c5.59-15.09,14.21-29.06,25.27-40.76,3.12-3.31,6.44-6.43,9.92-9.35,1.31-1.1-.38-3.24-1.82-2.36-9.38,5.81-20.15,9.26-31.17,9.91-5.43.32-10.84-.06-16.19-1.05s-10.42-2.25-15.67-1.69-9.21,2.94-12.27,7-4.91,8.81-7.74,12.98c-5.36,7.9-13.31,14.81-22.96,16.5-9.58,1.68-20.26-2.66-24.68-11.57-.51-1.03-2.05-.92-2.59,0-4.37,7.45-9.81,14.21-16.19,20.04-3.14,2.87-6.49,5.49-10.03,7.85-3.34,2.21-7.16,4.95-11.25,5.41-1.79.2-3.64-.23-4.82-1.68-1.09-1.34-1.33-3.13-1.27-4.81.12-3.72,1.75-7.35,3.47-10.59,3.61-6.79,8.95-12.62,15.36-16.86,7.13-4.72,15.49-7.45,24.06-7.43,1.93,0,1.93-3,0-3h0Z"/>
  <path d="M218.51,381.29c15.1-4.15,30.09-8.69,44.95-13.6,14.81-4.9,29.49-10.17,44.02-15.82s29.06-11.71,43.36-18.11c14.27-6.38,28.37-13.13,42.3-20.23,11.8-6.02,24.33-12.27,32.65-22.95,1.01-1.3,1.95-2.64,2.82-4.04.39-.63.19-1.73-.54-2.05-15.16-6.68-31.85,1.86-45.7,8.02s-27.43,12.87-40.73,20.12-26.36,15.06-39.07,23.37-25.14,17.15-37.19,26.44c-12.07,9.31-23.78,19.08-35.08,29.31-11.34,10.25-22.28,20.95-32.79,32.06-10.53,11.14-20.62,22.69-30.24,34.62-4.84,6.01-9.98,12.02-13.8,18.75s-6.01,14.25-3.62,21.68c3.52,10.97,15.01,15.29,25.53,16.37,5.8.59,11.67.3,17.43-.59,7.25-1.12,14.45-2.72,21.57-4.45,14.64-3.54,29.04-8.09,43.08-13.57s27.78-11.91,41.02-19.19,26.09-15.5,38.3-24.49,23.93-18.82,34.9-29.37c5.51-5.29,11.02-10.7,15.94-16.55,4.74-5.64,9.1-12.21,10.28-19.63.97-6.12,0-12.94-3.71-18.04-1.88-2.58-4.32-4.57-7.3-5.78-3.73-1.52-7.86-1.64-11.83-1.41-8.19.49-16.39,1.63-24.48,2.94-8.17,1.32-16.28,2.98-24.31,4.96-16.08,3.97-31.82,9.25-47.07,15.73-7.65,3.25-15.17,6.81-22.53,10.66-6.76,3.54-13.67,7.14-19.81,11.7-5.44,4.04-10.37,9.14-12.35,15.79-1.77,5.93.04,12.28,4.12,16.84,3.69,4.12,9.41,6.22,14.51,3.37,1.69-.94.17-3.53-1.51-2.59-4.93,2.76-10.07-1.06-12.61-5.28-1.46-2.45-2.33-5.27-2.23-8.13.1-3.06,1.42-6.09,3.04-8.64,3.55-5.59,9.22-9.55,14.8-12.91,6.74-4.06,13.72-7.75,20.78-11.22,14.38-7.06,29.32-12.98,44.63-17.7s30.86-8.22,46.65-10.49c4-.57,8-1.06,12.02-1.47s7.86-.87,11.79-.56c3.41.27,6.79,1.36,9.32,3.72,2.14,1.99,3.6,4.59,4.45,7.37,4.42,14.33-6.44,26.62-15.65,36.17-10.2,10.58-21.09,20.49-32.56,29.67-11.43,9.15-23.47,17.55-35.98,25.17-12.46,7.58-25.39,14.38-38.71,20.33-13.28,5.93-26.95,11-40.89,15.16-6.95,2.08-13.97,3.93-21.05,5.54-6.55,1.5-13.21,3.04-19.89,3.8-5.52.63-11.2.71-16.69-.17-5.02-.8-10.16-2.36-14.22-5.53s-6.69-8.31-6.77-13.68c-.12-7.78,4.33-14.87,8.77-20.92,8.76-11.93,18.5-23.26,28.37-34.28,9.84-10.99,20.1-21.6,30.75-31.82s21.62-19.98,32.98-29.33c11.34-9.34,23.03-18.25,35.05-26.7,11.98-8.42,24.28-16.39,36.87-23.88,12.56-7.47,25.41-14.46,38.51-20.94,6.54-3.23,13.14-6.34,19.81-9.32s14.01-6.37,21.36-8.51,15.16-3.05,22.24.07l-.54-2.05c-7.04,11.36-19.09,18.03-30.63,23.99-13.75,7.09-27.69,13.84-41.78,20.23-28.16,12.77-56.97,24.12-86.28,33.99-16.39,5.52-32.94,10.57-49.61,15.16-1.86.51-1.07,3.41.8,2.89h0Z"/>
  <path d="M396.26,393.11c18.98-1.95,37.85-5.06,56.44-9.38,5.27-1.22,10.51-2.54,15.73-3.95l-1.46-2.51c-15.52,12.43-29.61,26.61-41.96,42.19-6.13,7.73-12.04,15.77-17.14,24.22-3.89,6.44-7.92,16.22-2.63,23.02.65.84,1.21,1.56,2.36,1.42s2.4-.54,3.54-.86c2.19-.62,4.34-1.39,6.43-2.28,4.3-1.82,8.37-4.14,12.22-6.78,7.89-5.41,14.88-11.99,21.67-18.69,15.76-15.56,30.98-31.64,45.83-48.06,2.91-3.22,6.42-6.96,11.18-6.36,4.3.54,7.92,3.79,11.39,6.12,3.05,2.05,6.21,3.41,9.96,3.32,3.08-.07,6.42-1.06,8.3-3.65.89-1.23,1.26-2.73,1.23-4.24-.02-.91-.95-1.79-1.9-1.45-15.78,5.71-30.86,13.3-44.85,22.59s-27.05,20.35-38.53,32.73c-2.52,2.72-4.86,5.45-6.23,8.95-1.16,2.95-1.46,6.6.84,9.09,2.91,3.15,7.3,2.25,10.76.66,3.7-1.7,7.21-3.95,10.68-6.07,14.24-8.68,27.58-18.87,39.75-30.28,12.25-11.49,23.32-24.23,33-37.96,1.2-1.7,2.38-3.42,3.54-5.15.94-1.4-1.24-3.12-2.36-1.82-15.23,17.81-28.95,36.92-40.92,57.07-1.48,2.5-2.94,5.01-4.37,7.53-1.26,2.24-2.63,4.46-3.65,6.82-1.54,3.55-2.61,7.69-1.82,11.56.33,1.62,1.13,3.19,2.41,4.27.65.55,1.42,1,2.23,1.26,1.4.43,2.42-.85,3.44-1.65,4.45-3.53,8.87-7.12,13.24-10.75,17.24-14.32,33.84-29.4,49.76-45.18s31.24-32.33,45.77-49.48c14.61-17.23,28.47-35.1,41.54-53.53,1.62-2.28,3.22-4.57,4.81-6.86.89-1.28-.82-2.76-2.05-2.05s-2.22,1.67-3.23,2.58c-1.64,1.47-3.22,3.01-4.79,4.56-4.25,4.2-8.37,8.54-12.41,12.94-3.62,3.96-7.23,7.97-10.51,12.21-.95,1.23-1.97,2.48-2.66,3.88-.14.28-.23.57-.36.85.28-.56.16-.34.1-.24-.09.13-.17.27-.26.41-3.02,4.84-6.05,9.68-9.07,14.52-5.51,8.82-11.01,17.64-16.52,26.45s-11.1,17.78-16.66,26.67c-3.16,5.06-6.32,10.11-9.47,15.17-2.3,3.69-3.83,8.32-4.09,12.65-.22,3.69.9,7.4,3.94,9.69,3.53,2.66,8.16,2.13,12.06.67,4.19-1.57,8.06-4.01,11.9-6.26s7.78-4.67,11.59-7.13c7.64-4.92,15.07-10.17,22.28-15.7,14.52-11.16,28.14-23.47,40.67-36.82,12.55-13.36,24.02-27.74,34.27-42.94,2.53-3.76,4.99-7.57,7.37-11.42.88-1.42-1.22-3.12-2.36-1.82-13.3,15.35-26.53,30.79-38.69,47.08s-23.09,33.27-31.55,51.64c-4.76,10.32-8.7,21.01-11.59,32-.33,1.24,1.07,2.39,2.2,1.69,23.43-14.42,44.99-31.86,64.01-51.74,5.44-5.68,10.66-11.57,15.68-17.63l-1.82.23c2.81,1.56,4.56,4.24,5.08,7.39l1.05-1.85c-17.05,6.92-31.94,18.47-43.12,33.07-3.2,4.18-6.07,8.59-8.59,13.21-.71,1.29.73,2.83,2.05,2.05,20.14-11.92,38.82-26.3,55.52-42.69,4.7-4.61,9.23-9.38,13.61-14.29l-2.51-1.46c-7.33,18.1-16.72,35.35-27.91,51.35-1,1.43,1.17,2.97,2.36,1.82,14.51-14.09,29.02-28.18,43.53-42.26,4.16-4.04,8.33-8.08,12.49-12.12l-2.36-1.82c-9.78,18.1-19.57,36.2-29.35,54.31-2.76,5.11-5.52,10.22-8.28,15.33-.83,1.53,1.08,2.93,2.36,1.82,19.65-17.13,39.29-34.26,58.94-51.4,19.65-17.13,39.29-34.26,58.94-51.4,8.71-7.59,17.99-14.83,25.48-23.67,6.2-7.32,11.99-16.23,12.51-26.09s-5.35-18.06-13.84-22.46c-4.29-2.23-8.95-3.64-13.64-4.78-5.99-1.46-12.06-2.64-18.15-3.55-24.41-3.67-49.23-3.22-73.7-.43-24.43,2.78-48.56,7.77-72.46,13.48s-45.83,11.82-68.39,18.94-44.93,15.06-66.97,23.76c-21.98,8.68-43.65,18.12-64.97,28.32s-42.39,21.19-63,32.88c-5.03,2.85-10.03,5.75-15,8.68-1.07.63-.93,2.46.36,2.74,15.32,3.37,31.09,3.36,46.65,1.97,15.66-1.39,31.23-3.88,46.79-6.11,31.83-4.57,63.62-9.37,95.38-14.38s63.49-10.26,95.18-15.71c31.53-5.43,63.02-11.08,94.48-16.95,31.62-5.9,63.2-12.02,94.73-18.36,3.88-.78,7.76-1.56,11.64-2.35,1.89-.38,1.09-3.28-.8-2.89-31.36,6.36-62.77,12.51-94.22,18.44-31.44,5.93-62.93,11.63-94.45,17.12-31.52,5.49-63.07,10.76-94.66,15.81-31.59,5.05-63.21,9.88-94.86,14.49-15.72,2.29-31.44,4.69-47.21,6.63-15.38,1.89-30.99,3.08-46.45,1.33-3.83-.43-7.64-1.08-11.4-1.91l.36,2.74c20.15-11.89,40.71-23.09,61.64-33.56,20.91-10.46,42.18-20.2,63.76-29.18,21.53-8.96,43.38-17.17,65.48-24.61,22.07-7.43,44.4-14.1,66.94-19.97,23.2-6.05,46.64-11.47,70.3-15.35s48.63-6.15,73.06-4.77c12.15.69,24.25,2.29,36.13,4.98,9.03,2.05,19.66,4.72,25.06,12.98,5.34,8.16,3.24,17.84-1.24,25.86-5.09,9.11-12.62,16.4-20.41,23.19-19.33,16.86-38.67,33.72-58,50.58s-38.67,33.72-58,50.58c-4.71,4.11-9.42,8.21-14.12,12.32l2.36,1.82c9.78-18.1,19.57-36.2,29.35-54.31,2.76-5.11,5.52-10.22,8.28-15.33.8-1.49-1.11-3.03-2.36-1.82-14.51,14.09-29.02,28.18-43.53,42.26-4.16,4.04-8.33,8.08-12.49,12.12l2.36,1.82c8.82-12.6,16.52-25.97,22.97-39.93,1.85-4,3.59-8.05,5.24-12.13.57-1.4-1.55-2.53-2.51-1.46-15.44,17.32-32.9,32.82-52.02,45.97-5.38,3.7-10.89,7.21-16.5,10.54l2.05,2.05c8.58-15.67,21.26-29,36.58-38.21,4.27-2.56,8.72-4.81,13.34-6.69.81-.33,1.19-.96,1.05-1.85-.64-3.86-3.04-7.28-6.46-9.18-.54-.3-1.39-.28-1.82.23-17.51,21.16-37.67,40.13-59.97,56.17-6.22,4.47-12.6,8.71-19.12,12.73l2.2,1.69c5.1-19.37,13.49-37.65,23.8-54.78,10.38-17.24,22.57-33.31,35.35-48.83,7.17-8.71,14.53-17.25,21.91-25.77l-2.36-1.82c-9.52,15.4-20.25,30.03-32.11,43.71s-24.46,26.07-38.14,37.56-28.38,21.92-43.8,31.04c-3.77,2.23-7.6,4.71-11.67,6.36-3.6,1.46-8.32,2.39-11.16-1.01-2.22-2.67-1.82-6.61-1.03-9.74.61-2.41,1.49-4.91,2.74-7.07,2.39-4.13,5.07-8.11,7.59-12.16,5.2-8.32,10.39-16.64,15.59-24.96,5.58-8.94,11.17-17.89,16.75-26.83,3.71-5.94,7.41-11.87,11.12-17.81.36-.57.72-1.14,1.07-1.71.07-.12.16-.23.22-.35.07-.13.11-.26.17-.39.05-.11.18-.4-.03.03.05-.12.11-.23.17-.34,1.93-3.39,4.62-6.31,7.19-9.26,7.12-8.2,14.57-16.34,22.66-23.61.56-.5,1.12-.99,1.7-1.46.06-.05.36-.28.19-.16-.18.14.16-.12.2-.14.18-.12.35-.24.53-.35l-2.05-2.05c-8.55,12.33-17.45,24.42-26.7,36.24-9.18,11.72-18.69,23.18-28.52,34.36s-20.05,22.14-30.54,32.76c-10.47,10.6-21.25,20.9-32.32,30.88s-22.39,19.6-34,28.9c-1.42,1.14-2.85,2.27-4.28,3.4l1.46-.39c-4.44-1.48-2.97-7.98-1.87-11.24.95-2.82,2.55-5.37,4-7.95,1.73-3.06,3.49-6.1,5.3-9.11,7.44-12.43,15.54-24.46,24.26-36.03,4.96-6.58,10.13-12.99,15.48-19.25l-2.36-1.82c-8.9,13.3-19.1,25.72-30.42,37.03s-23.58,21.38-36.82,30.2c-3.31,2.2-6.67,4.32-10.09,6.35-1.71,1.02-3.42,2.01-5.16,2.98s-3.44,1.98-5.35,2.54c-1.7.5-3.62.63-4.98-.7-.98-.95-1.19-2.32-1.04-3.63.36-3.12,2.32-6.1,4.37-8.38,10.75-11.95,22.95-22.65,36.15-31.81,13.12-9.11,27.27-16.76,42.13-22.62,1.86-.73,3.73-1.44,5.61-2.12l-1.9-1.45c.07,3.65-3.75,4.89-6.82,4.89-4.67.01-8.03-2.87-11.71-5.37-4.07-2.77-8.92-5.29-13.94-3.56-5.3,1.83-8.93,6.99-12.55,10.98-8.69,9.57-17.54,18.98-26.55,28.24-8.47,8.71-16.93,17.54-26.06,25.57-9.23,8.11-19.7,15.31-31.92,17.84l1.46.39c-4.46-4.67-2.15-11.96.34-17.02,1.53-3.11,3.48-6,5.39-8.88,2.08-3.14,4.23-6.23,6.44-9.28,8.86-12.22,18.79-23.68,29.61-34.21,6.08-5.92,12.44-11.53,19.06-16.83,1.22-.98-.11-2.87-1.46-2.51-18.23,4.91-36.75,8.7-55.45,11.3-5.3.74-10.61,1.37-15.92,1.91-1.9.2-1.92,3.2,0,3h0Z"/>
</svg>